<svg width="35" height="35" viewBox="0 0 35 35" fill="none" xmlns="http://www.w3.org/2000/svg">
<path d="M17.4993 2.91602C15.5842 2.91602 13.6879 3.29322 11.9185 4.02611C10.1492 4.75899 8.54156 5.83319 7.18738 7.18738C4.45247 9.92228 2.91602 13.6316 2.91602 17.4993C2.91602 23.9452 7.10143 29.4139 12.891 31.3535C13.6202 31.4702 13.8535 31.0181 13.8535 30.6243V28.1598C9.81393 29.0348 8.95352 26.2056 8.95352 26.2056C8.28268 24.5139 7.33477 24.0618 7.33477 24.0618C6.00768 23.1577 7.43685 23.1868 7.43685 23.1868C8.89518 23.2889 9.6681 24.6889 9.6681 24.6889C10.9368 26.9056 13.0806 26.2493 13.9118 25.8993C14.0431 24.9514 14.4223 24.3098 14.8306 23.9452C11.5931 23.5806 8.19518 22.3264 8.19518 16.7702C8.19518 15.1514 8.74935 13.8535 9.69727 12.8181C9.55143 12.4535 9.04102 10.9368 9.8431 8.9681C9.8431 8.9681 11.0681 8.57435 13.8535 10.4556C15.0056 10.1348 16.2598 9.97435 17.4993 9.97435C18.7389 9.97435 19.9931 10.1348 21.1452 10.4556C23.9306 8.57435 25.1556 8.9681 25.1556 8.9681C25.9577 10.9368 25.4473 12.4535 25.3014 12.8181C26.2493 13.8535 26.8035 15.1514 26.8035 16.7702C26.8035 22.341 23.391 23.566 20.1389 23.9306C20.6639 24.3827 21.1452 25.2723 21.1452 26.6285V30.6243C21.1452 31.0181 21.3785 31.4848 22.1223 31.3535C27.9118 29.3993 32.0827 23.9452 32.0827 17.4993C32.0827 15.5842 31.7055 13.6879 30.9726 11.9185C30.2397 10.1492 29.1655 8.54156 27.8113 7.18738C26.4571 5.83319 24.8495 4.75899 23.0801 4.02611C21.3108 3.29322 19.4145 2.91602 17.4993 2.91602Z" fill="white"/>
</svg>
