<svg width="31" height="31" viewBox="0 0 31 31" fill="none" xmlns="http://www.w3.org/2000/svg">
<path d="M9.37435 0.916016H21.6243C26.291 0.916016 30.0827 4.70768 30.0827 9.37435V21.6243C30.0827 23.8676 29.1915 26.019 27.6053 27.6053C26.019 29.1915 23.8676 30.0827 21.6243 30.0827H9.37435C4.70768 30.0827 0.916016 26.291 0.916016 21.6243V9.37435C0.916016 7.13106 1.80716 4.97965 3.3934 3.3934C4.97965 1.80716 7.13106 0.916016 9.37435 0.916016ZM9.08268 3.83268C7.6903 3.83268 6.35494 4.38581 5.37037 5.37037C4.38581 6.35494 3.83268 7.6903 3.83268 9.08268V21.916C3.83268 24.8181 6.1806 27.166 9.08268 27.166H21.916C23.3084 27.166 24.6438 26.6129 25.6283 25.6283C26.6129 24.6438 27.166 23.3084 27.166 21.916V9.08268C27.166 6.1806 24.8181 3.83268 21.916 3.83268H9.08268ZM23.1556 6.02018C23.6391 6.02018 24.1027 6.21224 24.4446 6.5541C24.7865 6.89597 24.9785 7.35963 24.9785 7.8431C24.9785 8.32657 24.7865 8.79023 24.4446 9.1321C24.1027 9.47396 23.6391 9.66602 23.1556 9.66602C22.6721 9.66602 22.2085 9.47396 21.8666 9.1321C21.5247 8.79023 21.3327 8.32657 21.3327 7.8431C21.3327 7.35963 21.5247 6.89597 21.8666 6.5541C22.2085 6.21224 22.6721 6.02018 23.1556 6.02018ZM15.4993 8.20768C17.4332 8.20768 19.2879 8.97591 20.6553 10.3434C22.0228 11.7108 22.791 13.5655 22.791 15.4993C22.791 17.4332 22.0228 19.2879 20.6553 20.6553C19.2879 22.0228 17.4332 22.791 15.4993 22.791C13.5655 22.791 11.7108 22.0228 10.3434 20.6553C8.97591 19.2879 8.20768 17.4332 8.20768 15.4993C8.20768 13.5655 8.97591 11.7108 10.3434 10.3434C11.7108 8.97591 13.5655 8.20768 15.4993 8.20768ZM15.4993 11.1243C14.339 11.1243 13.2262 11.5853 12.4058 12.4058C11.5853 13.2262 11.1243 14.339 11.1243 15.4993C11.1243 16.6597 11.5853 17.7725 12.4058 18.5929C13.2262 19.4134 14.339 19.8743 15.4993 19.8743C16.6597 19.8743 17.7725 19.4134 18.5929 18.5929C19.4134 17.7725 19.8743 16.6597 19.8743 15.4993C19.8743 14.339 19.4134 13.2262 18.5929 12.4058C17.7725 11.5853 16.6597 11.1243 15.4993 11.1243Z" fill="white"/>
</svg>
