<svg width="35" height="35" viewBox="0 0 35 35" fill="none" xmlns="http://www.w3.org/2000/svg">
<path d="M27.7819 7.15984C26.4447 5.80958 24.8521 4.73896 23.097 4.01037C21.3419 3.28178 19.4593 2.9098 17.559 2.91609C9.59648 2.91609 3.1069 9.40568 3.1069 17.3682C3.1069 19.9203 3.77773 22.3994 5.0319 24.5869L2.99023 32.0828L10.6465 30.0703C12.7611 31.2223 15.1382 31.8348 17.559 31.8348C25.5215 31.8348 32.0111 25.3453 32.0111 17.3828C32.0111 13.5182 30.509 9.88693 27.7819 7.15984ZM17.559 29.3848C15.4007 29.3848 13.2861 28.8015 11.434 27.7078L10.9965 27.4453L6.44648 28.6411L7.6569 24.2078L7.36523 23.7557C6.16582 21.841 5.52908 19.6275 5.52773 17.3682C5.52773 10.7473 10.9236 5.35151 17.5444 5.35151C20.7527 5.35151 23.7715 6.60568 26.0319 8.88068C27.1513 9.99465 28.0385 11.3198 28.6418 12.7793C29.2451 14.2388 29.5526 15.8035 29.5465 17.3828C29.5757 24.0036 24.1798 29.3848 17.559 29.3848ZM24.1506 20.4015C23.7861 20.2265 22.0069 19.3515 21.6861 19.2203C21.3506 19.1036 21.1173 19.0453 20.8694 19.3953C20.6215 19.7598 19.9361 20.5765 19.7319 20.8098C19.5277 21.0578 19.309 21.0869 18.9444 20.8973C18.5798 20.7223 17.4131 20.3286 16.0423 19.1036C14.9632 18.1411 14.2486 16.9598 14.0298 16.5953C13.8257 16.2307 14.0006 16.0411 14.1902 15.8515C14.3506 15.6911 14.5548 15.4286 14.7298 15.2244C14.9048 15.0203 14.9777 14.8598 15.0944 14.6265C15.2111 14.3786 15.1527 14.1744 15.0652 13.9994C14.9777 13.8244 14.2486 12.0453 13.9569 11.3161C13.6652 10.6161 13.359 10.7036 13.1402 10.689H12.4402C12.1923 10.689 11.8132 10.7765 11.4777 11.1411C11.1569 11.5057 10.2236 12.3807 10.2236 14.1598C10.2236 15.939 11.5215 17.6598 11.6965 17.8932C11.8715 18.1411 14.2486 21.7869 17.8652 23.3473C18.7256 23.7265 19.3965 23.9453 19.9215 24.1057C20.7819 24.3828 21.5694 24.339 22.1965 24.2515C22.8965 24.1494 24.3402 23.3765 24.6319 22.5307C24.9381 21.6848 24.9382 20.9703 24.8361 20.8098C24.734 20.6494 24.5152 20.5765 24.1506 20.4015Z" fill="white"/>
</svg>
