<svg width="24" height="24" viewBox="0 0 24 24" fill="none" xmlns="http://www.w3.org/2000/svg">
<path d="M13.625 11.224C13.5123 11.3367 13.3595 11.4 13.2002 11.4C13.0408 11.4 12.888 11.3367 12.7754 11.224C12.6627 11.1113 12.5994 10.9585 12.5994 10.7992C12.5994 10.6399 12.6627 10.4871 12.7754 10.3744L17.5754 5.5744C17.6312 5.51861 17.6974 5.47436 17.7703 5.44417C17.8432 5.41398 17.9213 5.39844 18.0002 5.39844C18.0791 5.39844 18.1572 5.41398 18.2301 5.44417C18.303 5.47436 18.3692 5.51861 18.425 5.5744C18.4808 5.63018 18.525 5.69641 18.5552 5.7693C18.5854 5.84218 18.6009 5.9203 18.6009 5.9992C18.6009 6.07809 18.5854 6.15621 18.5552 6.2291C18.525 6.30198 18.4808 6.36821 18.425 6.424L13.625 11.224ZM6.42497 18.424C6.36919 18.4798 6.30296 18.524 6.23007 18.5542C6.15719 18.5844 6.07906 18.6 6.00017 18.6C5.92128 18.6 5.84316 18.5844 5.77027 18.5542C5.69738 18.524 5.63116 18.4798 5.57537 18.424C5.51959 18.3682 5.47533 18.302 5.44514 18.2291C5.41495 18.1562 5.39941 18.0781 5.39941 17.9992C5.39941 17.9203 5.41495 17.8422 5.44514 17.7693C5.47533 17.6964 5.51959 17.6302 5.57537 17.5744L10.3754 12.7744C10.488 12.6617 10.6408 12.5984 10.8002 12.5984C10.9595 12.5984 11.1123 12.6617 11.225 12.7744C11.3376 12.8871 11.4009 13.0399 11.4009 13.1992C11.4009 13.3585 11.3376 13.5113 11.225 13.624L6.42497 18.424Z" fill="white"/>
<path d="M6.00039 18.5984C5.84126 18.5984 5.68865 18.5352 5.57613 18.4227C5.4636 18.3102 5.40039 18.1576 5.40039 17.9984C5.40039 17.8393 5.4636 17.6867 5.57613 17.5742C5.68865 17.4617 5.84126 17.3984 6.00039 17.3984H10.8004C10.9595 17.3984 11.1121 17.4617 11.2247 17.5742C11.3372 17.6867 11.4004 17.8393 11.4004 17.9984C11.4004 18.1576 11.3372 18.3102 11.2247 18.4227C11.1121 18.5352 10.9595 18.5984 10.8004 18.5984H6.00039Z" fill="white"/>
<path d="M6.60039 17.9984C6.60039 18.1576 6.53718 18.3102 6.42465 18.4227C6.31213 18.5352 6.15952 18.5984 6.00039 18.5984C5.84126 18.5984 5.68865 18.5352 5.57613 18.4227C5.4636 18.3102 5.40039 18.1576 5.40039 17.9984V13.1984C5.40039 13.0393 5.4636 12.8867 5.57613 12.7742C5.68865 12.6617 5.84126 12.5984 6.00039 12.5984C6.15952 12.5984 6.31213 12.6617 6.42465 12.7742C6.53718 12.8867 6.60039 13.0393 6.60039 13.1984V17.9984ZM18.6004 10.7984C18.6004 10.9576 18.5372 11.1102 18.4247 11.2227C18.3121 11.3352 18.1595 11.3984 18.0004 11.3984C17.8413 11.3984 17.6886 11.3352 17.5761 11.2227C17.4636 11.1102 17.4004 10.9576 17.4004 10.7984V5.99844C17.4004 5.83931 17.4636 5.6867 17.5761 5.57417C17.6886 5.46165 17.8413 5.39844 18.0004 5.39844C18.1595 5.39844 18.3121 5.46165 18.4247 5.57417C18.5372 5.6867 18.6004 5.83931 18.6004 5.99844V10.7984Z" fill="white"/>
<path d="M13.2006 6.59844C13.0415 6.59844 12.8888 6.53522 12.7763 6.4227C12.6638 6.31018 12.6006 6.15757 12.6006 5.99844C12.6006 5.83931 12.6638 5.6867 12.7763 5.57417C12.8888 5.46165 13.0415 5.39844 13.2006 5.39844H18.0006C18.1597 5.39844 18.3123 5.46165 18.4249 5.57417C18.5374 5.6867 18.6006 5.83931 18.6006 5.99844C18.6006 6.15757 18.5374 6.31018 18.4249 6.4227C18.3123 6.53522 18.1597 6.59844 18.0006 6.59844H13.2006Z" fill="white"/>
</svg>
